<svg width="320" height="205" viewBox="0 0 320 205" fill="none" xmlns="http://www.w3.org/2000/svg">
<path fill-rule="evenodd" clip-rule="evenodd" d="M281.771 1.87051C285.204 4.18752 286.109 8.84921 283.792 12.2827L245.153 69.5408C255.208 75.8615 264.605 83.3306 273.137 91.8629C303.143 121.869 320 162.565 320 205L0 205C6.40745e-06 162.565 16.8571 121.869 46.8629 91.8629C55.3492 83.3766 64.6907 75.942 74.6848 69.6431L36.1953 12.6075C33.8783 9.17404 34.7834 4.51235 38.2169 2.19533C41.6503 -0.121684 46.312 0.783381 48.629 4.21685L87.7768 62.228C109.963 51.0055 134.672 45 160 45C185.262 45 209.909 50.9744 232.05 62.1407L271.359 3.89203C273.676 0.458556 278.337 -0.44651 281.771 1.87051ZM96 134C96 140.627 90.6274 146 84 146C77.3726 146 72 140.627 72 134C72 127.373 77.3726 122 84 122C90.6274 122 96 127.373 96 134ZM233 146C239.627 146 245 140.627 245 134C245 127.373 239.627 122 233 122C226.373 122 221 127.373 221 134C221 140.627 226.373 146 233 146Z" fill="white"/>
</svg>
